<svg xmlns="http://www.w3.org/2000/svg" id="Layer_1" data-name="Layer 1" viewBox="0 0 420 40"><defs><style>      .cls-1 {        fill: #f59f01;      }      .cls-2 {        fill: #0b5052;      }      .cls-3 {        fill: #e20e18;      }      .cls-4 {        fill: #ea6109;      }      .cls-5 {        fill: #5cfaae;      }      .cls-6 {        fill: #045797;      }      .cls-7 {        fill: #f6ab13;      }      .cls-8 {        fill: #0974d1;      }    </style></defs><g><path class="cls-8" d="M165.01,17.01c1.05-2.43,2.12-4.85,3.13-7.3,.35-.85,.88-1.26,1.79-1.2,.59,.03,1.19,.03,1.78,0,.92-.05,1.51,.32,1.8,1.2,.09,.26,.22,.51,.34,.78,.06-.05,.11-.07,.11-.09,.11-1.62,.38-1.88,2-1.88,.66,0,1.32,0,1.97,0,.71,0,1.2,.29,1.49,.96,.31,.72,.66,1.43,.99,2.14,0,.02,.03,.03,.1,.11,.32-.74,.65-1.44,.93-2.17,.28-.74,.79-1.08,1.56-1.04,1.13,.06,2.26,.19,3.39,.18,2.03-.02,4.06-.13,6.09-.17,.43,0,.86,.15,1.29,.14,1.77-.02,3.54-.13,5.31-.1,.81,.01,1.61,.28,2.54,.45,1.12-.94,3.35-.76,4.11,.49,1.76-1.15,3.7-1.14,5.68-.82,.14,.02,.29-.05,.43-.05,1.16-.02,2.32-.09,3.47,0,.31,.02,.65,.46,.88,.78,.23,.32,.34,.74,.51,1.12,.07-.07,.12-.09,.13-.12,.06-1.62,.33-1.88,1.97-1.88,.53,0,1.05,.03,1.58,0,.81-.05,1.4,.26,1.75,1,.14,.28,.32,.54,.58,.97,.03-.41,.04-.62,.07-.83,.07-.59,.39-1.01,.98-1.06,.76-.06,1.53-.05,2.29,0,.53,.03,.86,.4,.97,.92,.05,.23,.07,.48,.07,.72,0,2.22,0,4.43,0,6.65,0,1.26-.44,1.7-1.7,1.71-.64,0-1.27,0-1.91,0-.6,0-1.05-.24-1.36-.76-.29-.49-.59-.97-1.03-1.44,0,.26,0,.53,0,.79-.03,.87-.46,1.37-1.32,1.4-1.18,.04-2.37,.02-3.55,0-.68-.01-1.11-.42-1.29-1.04-.16-.55-.47-.73-1-.65-.11,.02-.22,.02-.33,0-.7-.11-1.16,.06-1.41,.84-.11,.35-.63,.77-1,.8-1.46,.11-2.94,.21-4.36-.32-.38-.14-.74-.35-1.15-.54-.32,.8-.98,.95-1.76,.93-1.31-.03-2.61,0-3.92,0-1.09,0-1.55-.48-1.56-1.58,0-.37,0-.74,0-1.14h-1.05c0,.43,0,.86,0,1.29-.02,.87-.46,1.38-1.31,1.41-.72,.02-1.44-.08-2.16-.09-.39,0-.77,.09-1.16,.1-1.78,.01-3.56,.1-5.33-.03-1.07-.08-2.11,.1-3.17,.05-.8-.04-1.42-.25-1.69-1.27-.35,1.2-1.18,1.29-2.11,1.27-.89-.02-1.75,0-2.12-1.23-.36,1.15-1.15,1.25-2.04,1.22-.88-.03-1.75-.02-2.63,0-.77,.01-1.34-.28-1.56-1.04-.16-.52-.44-.77-.99-.66-.11,.02-.22,.02-.33,0-.74-.13-1.26,.07-1.45,.88-.04,.19-.22,.38-.38,.52-.86,.7-3.37,.31-3.96-.61,0-.22,0-.44,0-.66Zm58.98-2.28s-.08,.03-.12,.04c-.12-.18-.24-.35-.34-.53-.82-1.35-1.63-2.7-2.45-4.05-.1-.17-.29-.4-.44-.41-.84-.04-1.69-.02-2.6-.02v6.8c-.8-1.61-1.49-3.24-2.19-4.86-.28-.64-.42-1.52-.91-1.84-.5-.32-1.36-.06-2.06-.11-.46-.04-.64,.16-.8,.56-.68,1.64-1.39,3.26-2.09,4.89-.07,.17-.17,.4-.32,.47-.79,.38-2.13-.19-2.29-1.05-.13-.69-.09-1.43,.01-2.13,.09-.61,.54-.99,1.19-1.03,.73-.05,1.47-.09,2.19-.13v-1.53c-.81,0-1.58-.05-2.35,0-1.54,.11-2.59,.88-2.84,2.28-.17,.93-.16,1.92-.03,2.86,.17,1.25,1,2.03,2.26,2.23,.67,.11,1.35,.12,2.03,.13,1.21,.02,1.23,.01,1.65-1.11,.17-.45,.42-.59,.87-.57,.63,.04,1.27,0,1.91,0,1.21,0,1.2,0,1.69,1.11,.09,.21,.3,.53,.46,.53,1.13,.05,2.26,.02,3.48,.02v-5.54c.23,.36,.35,.53,.46,.72,.89,1.46,1.77,2.93,2.66,4.38,.11,.17,.28,.41,.43,.42,.78,.04,1.56,.02,2.34,.02v-7.47h-1.8v4.91Zm-46.98-3.01l.16-.02c.72,1.62,1.47,3.22,2.14,4.86,.24,.58,.55,.75,1.15,.76,.65,.02,.91-.23,1.14-.79,.61-1.48,1.28-2.93,1.93-4.39,.06-.14,.15-.27,.22-.4,.04,.01,.08,.02,.11,.04v5.47h1.78v-7.48c-.73,0-1.41,.06-2.08-.02-.69-.07-.99,.19-1.23,.82-.54,1.4-1.16,2.77-1.79,4.26-.16-.3-.26-.48-.35-.67-.61-1.31-1.2-2.63-1.82-3.93-.09-.19-.3-.43-.47-.44-.87-.04-1.74-.02-2.68-.02v6.79c-.21-.16-.3-.35-.38-.54-.82-1.91-1.66-3.82-2.46-5.74-.16-.37-.34-.55-.76-.52-.55,.04-1.1,.04-1.64,0-.4-.03-.57,.14-.72,.49-.92,2.18-1.86,4.35-2.78,6.53-.06,.15-.1,.31-.16,.52,.62,0,1.17,0,1.71,0,.06,0,.16-.02,.18-.06,.19-.41,.35-.85,.58-1.25,.1-.16,.34-.33,.53-.34,.7-.04,1.4-.02,2.11-.02,1.24,0,1.23,0,1.73,1.14,.09,.21,.3,.5,.47,.5,1.11,.05,2.22,.02,3.39,.02v-5.57Zm17.36,5.54h1.77v-2.65c.88,0,1.69-.03,2.49,0,.7,.03,.97,.33,1,1.04,.03,.52,0,1.04,0,1.59h1.77c.31-1.88,.11-2.55-.98-3.47,1.01-.8,1.36-1.68,1.04-2.67-.27-.85-1.04-1.31-2.33-1.34-1.07-.02-2.15-.02-3.22-.02-.52,0-1.03,0-1.55,0v7.5Zm-1.36,0v-1.55h-4.12v-1.47h4.05v-1.59h-4.04v-1.35h4.13v-1.5h-5.91v7.45h5.89Zm11.42,0v-7.46h-1.75v7.46h1.75Zm5.23-4.5c-.04-.08-.09-.16-.13-.23-.33,.14-.81,.2-.96,.45-.17,.29-.07,.75-.05,1.14,0,.11,.16,.24,.28,.29,.05,.02,.22-.12,.26-.22,.22-.47,.41-.95,.61-1.42Z"></path><path class="cls-8" d="M190.06,29.67c-.41,.45-.79,.84-1.15,1.25-.38,.45-.86,.65-1.44,.64-2.19,0-4.39,0-6.58,0-1.05,0-1.51-.49-1.52-1.55,0-2.32-.01-4.65,0-6.97,0-1.04,.5-1.53,1.54-1.53,2.21-.01,4.43,0,6.64,0,.59,0,1.06,.19,1.45,.64,.34,.4,.7,.78,1.11,1.23,.39-.41,.77-.79,1.12-1.2,.4-.46,.89-.68,1.5-.67,1.78,.01,3.55-.05,5.33,.02,.94,.04,1.88,.29,2.99,.47,.34-.6,1.14-.5,1.91-.49,1.4,.02,2.81,0,4.21,.09,.68,.04,1.35,.27,2.13,.43,.33-.44,.92-.54,1.59-.53,1.69,.02,3.38-.02,5.07,.03,.51,.01,1,.25,1.75,.45,1.66-.85,3.75-.4,5.78-.42,.39,0,.78,.39,1.26,.66,.88-.65,2.05-.73,3.24-.71,.83,.01,1.67,0,2.5,0,1.06,.02,1.52,.48,1.53,1.53q.03,1.72-.51,2.4c.59,.7,.89,1.52,.89,2.45,0,2-1.26,3.46-3.26,3.59-1.42,.1-2.85,.09-4.27,.05-.43-.01-.84-.33-1.4-.57-1.85,.99-4.05,.52-6.19,.57-.79,.02-1.57,.03-2.36,.03-2.34,0-4.68,0-7.02,0-1.33,0-1.71-.39-1.72-1.73,0-.3,0-.61,0-.94-.2-.03-.34-.07-.48-.08-.15,0-.3,.01-.56,.02,0,.39,0,.78,0,1.16-.02,1.1-.46,1.54-1.57,1.56-.48,0-.97,.02-1.45-.01-.84-.06-1.27-.51-1.3-1.35-.02-.56,0-1.12,0-1.69-.65,.17-1.23,.38-1.83,.45-.6,.08-1.22,.02-1.92,.02,0,.47,.02,.84,0,1.2-.05,.89-.47,1.34-1.35,1.37-1.1,.04-2.2,.06-3.29-.02-.41-.03-.85-.3-1.19-.57-.42-.34-.74-.8-1.18-1.28Zm5.76-1.89c.61,0,1.14,.01,1.67,0,.52-.02,1.05-.05,1.57-.1,1.29-.13,2.06-.95,2.13-2.24,.08-1.53-.76-2.55-2.3-2.61-2.06-.07-4.12-.06-6.18-.04-.22,0-.48,.18-.65,.35-.66,.67-1.29,1.37-1.96,2.1-.65-.72-1.25-1.42-1.89-2.07-.2-.2-.55-.37-.83-.38-1.6-.04-3.2-.02-4.8-.02-.63,0-1.26,0-1.92,0v7.47c.09,.03,.15,.06,.21,.06,2.19,0,4.38,.02,6.57,0,.22,0,.47-.18,.64-.35,.67-.68,1.31-1.39,1.99-2.12,.66,.74,1.28,1.45,1.91,2.15,.12,.14,.3,.32,.46,.32,1.11,.03,2.22,.01,3.37,.01v-2.52Zm8.06,2.5v-2.7c.84,0,1.63-.04,2.41,.01,.8,.05,1.07,.38,1.1,1.18,.02,.5,0,.99,0,1.49h1.85c-.15-1.26,.45-2.68-1.13-3.46,.18-.14,.32-.24,.45-.35,.68-.62,.9-1.39,.67-2.27-.21-.82-.85-1.19-1.63-1.33-.36-.07-.74-.07-1.11-.07-1.46,0-2.92,0-4.39,0v7.5h1.78Zm8.29-1.55v-1.52h4.01v-1.55h-4.01v-1.37h4.13v-1.46h-5.94v7.43h5.95v-1.52h-4.13Zm18.59-5.89c-1.5,0-2.97-.1-4.41,.03-1.12,.1-1.75,1.03-1.73,2.13,.01,1.25,.54,1.9,1.77,2.16,.34,.07,.69,.09,1.04,.12,.44,.04,.89,0,1.3,.13,.21,.06,.47,.37,.48,.57,0,.21-.24,.52-.45,.6-.29,.12-.64,.09-.97,.1-.98,0-1.95,0-2.94,0v1.52c1.49,0,2.95,.1,4.38-.03,1.35-.13,1.95-1,1.91-2.37-.03-1.29-.58-1.86-2-2.05-.43-.06-.88-.04-1.31-.07-.28-.02-.6,0-.84-.11-.21-.11-.44-.39-.46-.6-.01-.18,.25-.46,.46-.54,.27-.1,.6-.07,.91-.07,.95,0,1.91,0,2.87,0v-1.52Zm-13.3,7.43c1.4,0,2.76,.01,4.11,0,.28,0,.56-.1,.83-.2,1.04-.38,1.47-1.23,1.34-2.56-.1-.99-.62-1.53-1.7-1.69-.58-.09-1.18-.07-1.77-.13-.48-.05-1.15,.03-1.13-.69,.02-.71,.66-.63,1.16-.63,1.02,0,2.04,0,3.07,0v-1.56c-1.43,0-2.81-.06-4.19,.02-1.15,.07-1.9,.94-1.94,2.03-.05,1.31,.5,2.04,1.74,2.31,.32,.07,.65,.09,.98,.12,.46,.04,.93,.01,1.37,.13,.21,.05,.51,.37,.5,.55-.02,.23-.26,.53-.49,.64-.26,.12-.6,.09-.9,.09-.98,0-1.96,0-2.97,0v1.58Z"></path><path class="cls-8" d="M214.86,14.02h-2.45c.4-.97,.78-1.91,1.21-2.98,.43,1.04,.81,1.95,1.24,2.98Z"></path><path class="cls-8" d="M170.78,11.05c.45,1.08,.82,1.98,1.21,2.95h-2.41c.38-.94,.75-1.86,1.19-2.95Z"></path><path class="cls-8" d="M196.19,12.97v-1.61c.88,0,1.73-.02,2.57,0,.46,.02,.81,.26,.82,.76,0,.48-.26,.81-.75,.83-.87,.03-1.73,0-2.64,0Z"></path><path class="cls-8" d="M188.92,26.52c-.65,.7-1.24,1.35-1.85,1.98-.11,.11-.29,.22-.44,.22-1.38,.02-2.75,0-4.17,0v-1.47h3.86v-1.55h-3.78c-.07-.11-.1-.15-.11-.18q-.09-1.21,1.13-1.21c.96,0,1.93-.01,2.89,0,.22,0,.51,.05,.65,.19,.61,.62,1.18,1.29,1.81,2Z"></path><path class="cls-8" d="M193.96,29.56c-.95-1.06-1.81-2.01-2.71-3.01,.88-.95,1.75-1.88,2.71-2.92v5.93Z"></path><path class="cls-8" d="M195.84,26.21v-1.86c.87,0,1.71-.02,2.56,0,.54,.02,.84,.32,.85,.88,0,.57-.31,.93-.86,.96-.82,.05-1.65,.01-2.55,.01Z"></path><path class="cls-8" d="M203.9,25.97v-1.6c.92,0,1.81-.02,2.7,0,.45,.02,.71,.32,.7,.78,0,.46-.25,.78-.7,.8-.89,.04-1.77,.01-2.7,.01Z"></path></g><g><path class="cls-6" d="M124.85,8.58c.62,0,1.25,0,1.87,0,.29,0,.45,.03,.48,.4,.35,4,.71,8,1.09,11.99,.03,.34-.08,.4-.38,.4-.92-.01-1.85,0-2.77,0-.26,0-.42-.06-.39-.35,0-.08-.01-.17-.02-.26q-.06-1.31-1.34-1.31c-.84,0-1.68,.01-2.51,0-.34,0-.58,.04-.67,.41-.31,1.3-1.12,1.77-2.42,1.52-.44-.08-2.07-.02-1.72-.68,1.26-2.37,2.52-4.73,3.78-7.09,.82-1.53,1.64-3.06,2.45-4.6,.16-.31,.34-.44,.7-.43,.62,.03,1.25,0,1.87,0Zm-.61,2.58c-.83,1.83-1.65,3.66-2.49,5.49-.15,.32-.09,.42,.25,.41,.69-.01,1.38-.02,2.06,0,.37,.01,.48-.12,.46-.49-.1-1.8-.24-3.6-.28-5.41Z"></path><path class="cls-7" d="M128.19,28.61c-2.84-.57-5.64-1-8.47-1.22-3.31-.26-6.61-.26-9.91,0-6.65,.54-13.01,2.24-19.15,4.82-.15,.06-.38,.29-.5,.06-.15-.29,.14-.38,.36-.48,6.35-3.12,12.91-5.61,19.9-6.85,5.3-.94,10.62-1.22,15.98-.75,.53,.05,1.07,.1,1.6,.14,.23,.02,.36,.07,.35,.33-.06,1.3-.11,2.61-.16,3.94Z"></path><path class="cls-6" d="M93.39,16.62c1.3-2.58,2.79-4.93,4.12-7.38,.27-.49,.55-.72,1.14-.68,.92,.06,1.85,.02,2.77,.02,.11,.25-.08,.38-.16,.54-2.22,3.93-4.44,7.84-6.66,11.77-.19,.34-.39,.5-.8,.48-.86-.03-1.72-.03-2.58,0-.38,.01-.52-.09-.57-.48-.33-3.12-.7-6.23-1.03-9.35-.17-1.59-.71-2.23-2.28-2.57-.13-.03-.35,0-.31-.23,.03-.22,.23-.15,.37-.15,1.68,0,3.36,.01,5.03-.01,.45,0,.47,.22,.49,.55,.15,2.47,.31,4.93,.48,7.5Z"></path><path class="cls-6" d="M117.38,9.82c-.59,.69-1.15,1.33-1.69,2-.23,.28-.38,.15-.58,0-.74-.55-1.52-.97-2.48-.91-.28,.02-.56,.06-.81,.19-.69,.35-.82,1.04-.26,1.57,.28,.27,.61,.48,.93,.69,.63,.42,1.27,.8,1.85,1.28,2.19,1.82,1.97,3.9,.05,5.8-1.1,1.09-2.55,1.27-4.01,1.26-1.66,0-3.23-.39-4.7-1.18-.38-.2-.52-.34-.21-.74,.4-.53,.76-1.1,1.09-1.67,.21-.37,.42-.4,.76-.17,1.03,.68,2.15,1.06,3.4,.99,.38-.02,.72-.1,1.02-.33,.62-.49,.64-1.12,.05-1.62-.26-.22-.56-.39-.85-.58-.52-.34-1.06-.66-1.55-1.03-1.14-.86-1.96-1.9-1.69-3.44,.29-1.64,1.22-2.79,2.82-3.29,2.46-.77,4.73-.31,6.86,1.19Z"></path><path class="cls-6" d="M101.2,21.36c-.39,0-.78-.03-1.16,0-.47,.04-.59-.07-.43-.56,.75-2.39,1.47-4.8,2.19-7.2,.45-1.5,.93-2.99,1.35-4.5,.13-.45,.33-.61,.8-.58,.79,.04,1.59,.02,2.39,0,.36,0,.5,.04,.37,.47-1.22,3.98-2.43,7.96-3.63,11.95-.1,.34-.25,.45-.59,.43-.43-.02-.86,0-1.29,0Z"></path><g><path class="cls-6" d="M130.3,10.79c-.87,0-1.59-.71-1.59-1.59s.71-1.59,1.59-1.59,1.59,.71,1.59,1.59-.71,1.59-1.59,1.59Zm0-2.91c-.73,0-1.33,.6-1.33,1.33s.6,1.33,1.33,1.33,1.33-.6,1.33-1.33-.6-1.33-1.33-1.33Z"></path><path class="cls-6" d="M129.7,8.44c.12-.02,.28-.03,.48-.03,.24,0,.4,.04,.51,.12,.1,.08,.15,.19,.15,.33,0,.2-.14,.34-.28,.39h0c.11,.05,.17,.16,.21,.3,.05,.18,.1,.39,.13,.45h-.37s-.06-.17-.11-.37c-.04-.2-.11-.25-.26-.25h-.11v.62h-.36v-1.57Zm.36,.68h.14c.18,0,.28-.09,.28-.23s-.1-.22-.26-.22c-.09,0-.14,0-.16,.01v.44Z"></path></g></g><g><path class="cls-5" d="M301.73,23.38v2.94h-3.27V10.64c1.1-.17,2.14-.33,3.26-.5v6.67c.11-.04,.19-.04,.2-.07,.89-2.36,2.09-3.21,4.48-3.2,2.17,.02,3.81,1.15,4.51,3.29,.76,2.31,.77,4.67-.16,6.94-1.1,2.68-4.36,3.74-6.9,2.32-1.09-.61-1.65-1.6-2.11-2.71Zm6.33-3.22s-.08-.01-.12-.02c0-.33,.03-.67,0-1-.19-1.58-1.2-2.74-2.56-2.95-1.52-.24-2.82,.44-3.41,1.85-.59,1.42-.59,2.87,.08,4.26,.6,1.24,1.63,1.78,3.02,1.69,1.33-.08,2.17-.8,2.61-1.99,.21-.58,.26-1.22,.37-1.84Z"></path><path class="cls-5" d="M284.1,26.32V10.65c1.04-.16,2.07-.33,3.19-.5v6.73c.16-.13,.27-.17,.3-.24,.79-2.12,1.98-3.03,4.03-3.09,2.33-.07,3.94,.86,4.75,2.92,.97,2.45,.98,4.96-.05,7.38-1.12,2.64-4.38,3.73-6.81,2.21-.92-.57-1.51-1.65-2.13-2.36v2.62h-3.27Zm3.1-6.22c0,2.19,1.12,3.71,2.82,3.87,2.28,.21,3.74-1.43,3.62-4.06-.11-2.31-1.24-3.69-3.06-3.75-2.07-.07-3.38,1.47-3.38,3.94Z"></path><path class="cls-5" d="M278.65,16.8v-2.46c1.12-.17,2.19-.34,3.32-.51v12.5h-3.3v-3.2c-1.27,3.08-3.5,4.17-6.27,3.25-1.37-.46-2.26-1.42-2.75-2.72-.9-2.4-.92-4.84,.03-7.22,1.08-2.72,4.41-3.78,6.97-2.31,1.04,.6,1.57,1.57,2,2.66Zm-6.3,3.12c.11,.67,.15,1.21,.28,1.72,.41,1.53,1.44,2.34,2.94,2.36,1.46,.02,2.61-.82,3.04-2.27,.39-1.35,.36-2.7-.31-3.98-.61-1.15-1.59-1.65-2.89-1.59-1.22,.06-2.11,.66-2.56,1.77-.27,.66-.36,1.4-.5,1.99Z"></path><path class="cls-5" d="M316.92,30.27c.34-1.37,.65-2.58,.97-3.88h-3.09c-1.1-4.18-2.19-8.32-3.32-12.62,1.15,0,2.2-.03,3.24,.03,.18,.01,.42,.44,.48,.71,.9,3.74,1.77,7.5,2.85,11.29,1.06-3.99,2.12-7.99,3.19-12.01h3.33c-.58,2.19-1.16,4.33-1.72,6.48-.81,3.08-1.64,6.16-2.42,9.25-.14,.54-.34,.79-.94,.75-.8-.05-1.6-.01-2.58-.01Z"></path><path class="cls-5" d="M258.44,14.63c.68-.12,1.34-.23,2.12-.36v-4.55h3.29c.33,1.98-.28,3.11-2.51,4.45,2.29-.35,4.36-.66,6.49-.98v2.31c-1.31,.22-2.65,.44-4.01,.67v1.12c1.34-.19,2.64-.37,4.01-.57v2.2c-1.33,.22-2.63,.43-4.03,.66,0,.99-.03,1.95,0,2.9,.03,.76,.63,1.02,1.25,1.04,.75,.03,1.52-.09,2.37-.15,0,.43,0,.95,0,1.46,0,1.46-.05,1.54-1.5,1.72-.66,.08-1.34,.09-2,.04-2.13-.18-3.45-1.6-3.52-3.75-.03-.86,0-1.72,0-2.7-.69,.07-1.3,.14-1.96,.21v-2.09q1.95-.65,1.89-1.51c-.61,.06-1.22,.13-1.89,.2v-2.3Z"></path></g><g><path class="cls-2" d="M358.23,15.59l-3.2,1.91c-.8-1.35-2.06-2.1-3.64-2.1-2.42,0-4.21,1.88-4.21,4.6,0,2.95,1.96,4.6,4.22,4.6,1.55,0,2.82-.74,3.7-2.09l3,2.2c-1.4,2.17-3.73,3.52-6.66,3.52-4.72,0-8.06-3.43-8.06-8.23s3.33-8.23,8.06-8.23c2.92,0,5.5,1.42,6.8,3.82Z"></path><path class="cls-2" d="M375.36,20c0,4.74-3.35,8.23-8.07,8.23s-8.07-3.49-8.07-8.23,3.35-8.23,8.07-8.23,8.07,3.49,8.07,8.23Zm-12.33,0c0,2.72,1.77,4.6,4.26,4.6s4.26-1.88,4.26-4.6-1.77-4.6-4.26-4.6-4.26,1.88-4.26,4.6Z"></path><path class="cls-2" d="M384.05,12.06c4.79,0,7.95,3.15,7.95,7.94s-3.16,7.94-7.95,7.94h-6.55V12.06h6.55Zm-2.9,3.5v8.87h2.82c2.84,0,4.21-1.87,4.21-4.43s-1.37-4.43-4.21-4.43h-2.82Z"></path></g><g><g><path class="cls-1" d="M45.39,9.75c5.77-4.6,14.5-2.02,16.82,4.98,2.05,6.19-1.74,12.71-8.14,13.93-3.2,.61-6.1-.13-8.68-2.11,.01-.02,.02-.05,.04-.07,2.43-1.97,3.74-4.53,4-7.61,.16-1.88-.25-3.7-1.06-5.41-.7-1.47-1.75-2.66-2.98-3.72Z"></path><path class="cls-3" d="M45.31,26.57c-1.39,1.14-2.99,1.84-4.76,2.12-5.46,.87-10.42-2.19-12.1-7.43-1.73-5.4,1.36-11.47,6.78-13.25,3.45-1.13,6.69-.65,9.7,1.38,.14,.09,.25,.21,.38,.31-.36,.48-.86,.8-1.26,1.25-2.09,2.39-3,5.14-2.69,8.3,.2,2.03,.96,3.82,2.18,5.44,.52,.69,1.19,1.22,1.76,1.85Z"></path><path class="cls-4" d="M45.31,26.57c-.57-.63-1.24-1.16-1.76-1.85-1.22-1.62-1.98-3.41-2.18-5.44-.31-3.16,.6-5.91,2.69-8.3,.39-.45,.9-.78,1.26-1.25,.03,0,.06,.02,.08,.03,1.22,1.05,2.28,2.25,2.98,3.72,.82,1.71,1.22,3.53,1.06,5.41-.26,3.08-1.58,5.64-4,7.61-.02,.02-.03,.05-.04,.07-.03,0-.05,.02-.08,.02Z"></path></g><g><path d="M33.77,32.8v1.7h-.72v-1.47c0-.39-.2-.6-.52-.6s-.57,.2-.57,.6v1.47h-.72v-1.47c0-.39-.19-.6-.52-.6-.31,0-.57,.2-.57,.6v1.47h-.72v-2.68h.7v.31c.19-.28,.48-.39,.79-.39,.39,0,.7,.17,.88,.46,.21-.34,.56-.46,.91-.46,.63,0,1.05,.42,1.05,1.04Z"></path><path d="M37.14,34.51h-.7v-.3c-.17,.22-.43,.37-.8,.37-.74,0-1.29-.61-1.29-1.41s.56-1.41,1.29-1.41c.37,0,.62,.15,.8,.37v-.29h.7v2.68Zm-2.06-1.34c0,.41,.27,.74,.69,.74s.69-.31,.69-.74-.28-.74-.69-.74-.69,.33-.69,.74Z"></path><path d="M39.82,32.58c-.21-.1-.55-.21-.85-.22-.27,0-.41,.1-.41,.24,0,.15,.19,.19,.44,.23l.24,.04c.58,.09,.9,.35,.9,.8,0,.55-.45,.91-1.23,.91-.36,0-.84-.07-1.19-.32l.28-.55c.23,.15,.51,.26,.91,.26,.33,0,.49-.09,.49-.25,0-.13-.14-.2-.44-.25l-.22-.03c-.62-.09-.92-.36-.92-.81,0-.55,.43-.88,1.13-.88,.43,0,.76,.08,1.12,.25l-.24,.56Z"></path><path d="M42.63,32.47h-.97v.98c0,.33,.18,.46,.4,.46,.17,0,.36-.08,.5-.17l.26,.56c-.23,.16-.51,.28-.89,.28-.66,0-1-.38-1-1.07v-1.04h-.52v-.64h.52v-.8h.72v.8h.97v.64Z"></path><path d="M45.73,33.17c0,.08,0,.18-.01,.24h-1.9c.08,.39,.35,.56,.69,.56,.23,0,.48-.09,.68-.26l.42,.46c-.3,.28-.69,.41-1.14,.41-.82,0-1.39-.56-1.39-1.4s.55-1.42,1.35-1.42,1.3,.57,1.3,1.41Zm-1.91-.25h1.18c-.07-.34-.27-.54-.58-.54-.34,0-.54,.21-.6,.54Z"></path><path d="M48.15,31.82l-.11,.72c-.12-.05-.29-.09-.44-.09-.33,0-.56,.21-.56,.6v1.46h-.72v-2.68h.7v.29c.17-.25,.43-.36,.75-.36,.15,0,.28,.02,.38,.06Z"></path><path d="M50.88,32.26l-.52,.43c-.16-.17-.34-.27-.57-.27-.37,0-.67,.29-.67,.74s.3,.74,.67,.74c.23,0,.43-.1,.58-.27l.51,.44c-.25,.32-.63,.5-1.07,.5-.85,0-1.42-.6-1.42-1.41s.57-1.41,1.42-1.41c.45,0,.83,.18,1.07,.51Z"></path><path d="M53.99,34.51h-.7v-.3c-.17,.22-.43,.37-.8,.37-.74,0-1.29-.61-1.29-1.41s.56-1.41,1.29-1.41c.37,0,.62,.15,.8,.37v-.29h.7v2.68Zm-2.06-1.34c0,.41,.27,.74,.69,.74s.69-.31,.69-.74-.28-.74-.69-.74-.69,.33-.69,.74Z"></path><path d="M56.58,31.82l-.11,.72c-.12-.05-.29-.09-.44-.09-.33,0-.56,.21-.56,.6v1.46h-.72v-2.68h.7v.29c.17-.25,.43-.36,.75-.36,.15,0,.28,.02,.38,.06Z"></path><path d="M58.9,32.11v-1.58h.72v3.98h-.7v-.3c-.17,.22-.43,.37-.8,.37-.74,0-1.29-.61-1.29-1.41s.56-1.41,1.29-1.41c.36,0,.61,.14,.79,.35Zm-1.34,1.06c0,.41,.27,.74,.69,.74s.69-.31,.69-.74-.28-.74-.69-.74-.69,.33-.69,.74Z"></path><path d="M61.3,34.04c0,.29-.25,.54-.53,.54s-.54-.25-.54-.54,.25-.53,.54-.53,.53,.25,.53,.53Z"></path></g></g></svg>