<svg xmlns="http://www.w3.org/2000/svg" id="Layer_1" data-name="Layer 1" viewBox="0 0 420 40"><defs><style>      .cls-1 {        fill: #f59f01;      }      .cls-2 {        fill: #0b5052;      }      .cls-3 {        fill: #e20e18;      }      .cls-4 {        fill: #4284f3;      }      .cls-5 {        fill: #ea6109;      }      .cls-6 {        fill: #e84235;      }      .cls-7 {        fill: #045797;      }      .cls-8 {        fill: #f9ba05;      }      .cls-9 {        fill: #5f6368;      }      .cls-10 {        fill: #f6ab13;      }      .cls-11 {        fill: #34a753;      }    </style></defs><g><path class="cls-7" d="M130.85,9.58c.62,0,1.25,0,1.87,0,.29,0,.45,.03,.48,.4,.35,4,.71,8,1.09,11.99,.03,.34-.08,.4-.38,.4-.92-.01-1.85,0-2.77,0-.26,0-.42-.06-.39-.35,0-.08-.01-.17-.02-.26q-.06-1.31-1.34-1.31c-.84,0-1.68,.01-2.51,0-.34,0-.58,.04-.67,.41-.31,1.3-1.12,1.77-2.42,1.52-.44-.08-2.07-.02-1.72-.68,1.26-2.37,2.52-4.73,3.78-7.09,.82-1.53,1.64-3.06,2.45-4.6,.16-.31,.34-.44,.7-.43,.62,.03,1.25,0,1.87,0Zm-.61,2.58c-.83,1.83-1.65,3.66-2.49,5.49-.15,.32-.09,.42,.25,.41,.69-.01,1.38-.02,2.06,0,.37,.01,.48-.12,.46-.49-.1-1.8-.24-3.6-.28-5.41Z"></path><path class="cls-10" d="M134.19,29.61c-2.84-.57-5.64-1-8.47-1.22-3.31-.26-6.61-.26-9.91,0-6.65,.54-13.01,2.24-19.15,4.82-.15,.06-.38,.29-.5,.06-.15-.29,.14-.38,.36-.48,6.35-3.12,12.91-5.61,19.9-6.85,5.3-.94,10.62-1.22,15.98-.75,.53,.05,1.07,.1,1.6,.14,.23,.02,.36,.07,.35,.33-.06,1.3-.11,2.61-.16,3.94Z"></path><path class="cls-7" d="M99.39,17.62c1.3-2.58,2.79-4.93,4.12-7.38,.27-.49,.55-.72,1.14-.68,.92,.06,1.85,.02,2.77,.02,.11,.25-.08,.38-.16,.54-2.22,3.93-4.44,7.84-6.66,11.77-.19,.34-.39,.5-.8,.48-.86-.03-1.72-.03-2.58,0-.38,.01-.52-.09-.57-.48-.33-3.12-.7-6.23-1.03-9.35-.17-1.59-.71-2.23-2.28-2.57-.13-.03-.35,0-.31-.23,.03-.22,.23-.15,.37-.15,1.68,0,3.36,.01,5.03-.01,.45,0,.47,.22,.49,.55,.15,2.47,.31,4.93,.48,7.5Z"></path><path class="cls-7" d="M123.38,10.82c-.59,.69-1.15,1.33-1.69,2-.23,.28-.38,.15-.58,0-.74-.55-1.52-.97-2.48-.91-.28,.02-.56,.06-.81,.19-.69,.35-.82,1.04-.26,1.57,.28,.27,.61,.48,.93,.69,.63,.42,1.27,.8,1.85,1.28,2.19,1.82,1.97,3.9,.05,5.8-1.1,1.09-2.55,1.27-4.01,1.26-1.66,0-3.23-.39-4.7-1.18-.38-.2-.52-.34-.21-.74,.4-.53,.76-1.1,1.09-1.67,.21-.37,.42-.4,.76-.17,1.03,.68,2.15,1.06,3.4,.99,.38-.02,.72-.1,1.02-.33,.62-.49,.64-1.12,.05-1.62-.26-.22-.56-.39-.85-.58-.52-.34-1.06-.66-1.55-1.03-1.14-.86-1.96-1.9-1.69-3.44,.29-1.64,1.22-2.79,2.82-3.29,2.46-.77,4.73-.31,6.86,1.19Z"></path><path class="cls-7" d="M107.2,22.36c-.39,0-.78-.03-1.16,0-.47,.04-.59-.07-.43-.56,.75-2.39,1.47-4.8,2.19-7.2,.45-1.5,.93-2.99,1.35-4.5,.13-.45,.33-.61,.8-.58,.79,.04,1.59,.02,2.39,0,.36,0,.5,.04,.37,.47-1.22,3.98-2.43,7.96-3.63,11.95-.1,.34-.25,.45-.59,.43-.43-.02-.86,0-1.29,0Z"></path><path class="cls-7" d="M136.3,11.79c-.87,0-1.59-.71-1.59-1.59s.71-1.59,1.59-1.59,1.59,.71,1.59,1.59-.71,1.59-1.59,1.59Zm0-2.91c-.73,0-1.33,.6-1.33,1.33s.6,1.33,1.33,1.33,1.33-.6,1.33-1.33-.6-1.33-1.33-1.33Z"></path><path class="cls-7" d="M135.7,9.44c.12-.02,.28-.03,.48-.03,.24,0,.4,.04,.51,.12,.1,.08,.15,.19,.15,.33,0,.2-.14,.34-.28,.39h0c.11,.05,.17,.16,.21,.3,.05,.18,.1,.39,.13,.45h-.37s-.06-.17-.11-.37c-.04-.2-.11-.25-.26-.25h-.11v.62h-.36v-1.57Zm.36,.68h.14c.18,0,.28-.09,.28-.23s-.1-.22-.26-.22c-.09,0-.14,0-.16,.01v.44Z"></path></g><g><path class="cls-2" d="M369.23,15.59l-3.2,1.91c-.8-1.35-2.06-2.1-3.64-2.1-2.42,0-4.21,1.88-4.21,4.6,0,2.95,1.96,4.6,4.22,4.6,1.55,0,2.82-.74,3.7-2.09l3,2.2c-1.4,2.17-3.73,3.52-6.66,3.52-4.72,0-8.06-3.43-8.06-8.23s3.33-8.23,8.06-8.23c2.92,0,5.5,1.42,6.8,3.82Z"></path><path class="cls-2" d="M386.36,20c0,4.74-3.35,8.23-8.07,8.23s-8.07-3.49-8.07-8.23,3.35-8.23,8.07-8.23,8.07,3.49,8.07,8.23Zm-12.33,0c0,2.72,1.77,4.6,4.26,4.6s4.26-1.88,4.26-4.6-1.77-4.6-4.26-4.6-4.26,1.88-4.26,4.6Z"></path><path class="cls-2" d="M395.05,12.06c4.79,0,7.95,3.15,7.95,7.94s-3.16,7.94-7.95,7.94h-6.55V12.06h6.55Zm-2.9,3.5v8.87h2.82c2.84,0,4.21-1.87,4.21-4.43s-1.37-4.43-4.21-4.43h-2.82Z"></path></g><g><path class="cls-1" d="M35.39,8.75c5.77-4.6,14.5-2.02,16.82,4.98,2.05,6.19-1.74,12.71-8.14,13.93-3.2,.61-6.1-.13-8.68-2.11,.01-.02,.02-.05,.04-.07,2.43-1.97,3.74-4.53,4-7.61,.16-1.88-.25-3.7-1.06-5.41-.7-1.47-1.75-2.66-2.98-3.72Z"></path><path class="cls-3" d="M35.31,25.57c-1.39,1.14-2.99,1.84-4.76,2.12-5.46,.87-10.42-2.19-12.1-7.43-1.73-5.4,1.36-11.47,6.78-13.25,3.45-1.13,6.69-.65,9.7,1.38,.14,.09,.25,.21,.38,.31-.36,.48-.86,.8-1.26,1.25-2.09,2.39-3,5.14-2.69,8.3,.2,2.03,.96,3.82,2.18,5.44,.52,.69,1.19,1.22,1.76,1.85Z"></path><path class="cls-5" d="M35.31,25.57c-.57-.63-1.24-1.16-1.76-1.85-1.22-1.62-1.98-3.41-2.18-5.44-.31-3.16,.6-5.91,2.69-8.3,.39-.45,.9-.78,1.26-1.25,.03,0,.06,.02,.08,.03,1.22,1.05,2.28,2.25,2.98,3.72,.82,1.71,1.22,3.53,1.06,5.41-.26,3.08-1.58,5.64-4,7.61-.02,.02-.03,.05-.04,.07-.03,0-.05,.02-.08,.02Z"></path><path d="M23.77,31.8v1.7h-.72v-1.47c0-.39-.2-.6-.52-.6s-.57,.2-.57,.6v1.47h-.72v-1.47c0-.39-.19-.6-.52-.6-.31,0-.57,.2-.57,.6v1.47h-.72v-2.68h.7v.31c.19-.28,.48-.39,.79-.39,.39,0,.7,.17,.88,.46,.21-.34,.56-.46,.91-.46,.63,0,1.05,.42,1.05,1.04Z"></path><path d="M27.14,33.51h-.7v-.3c-.17,.22-.43,.37-.8,.37-.74,0-1.29-.61-1.29-1.41s.56-1.41,1.29-1.41c.37,0,.62,.15,.8,.37v-.29h.7v2.68Zm-2.06-1.34c0,.41,.27,.74,.69,.74s.69-.31,.69-.74-.28-.74-.69-.74-.69,.33-.69,.74Z"></path><path d="M29.82,31.58c-.21-.1-.55-.21-.85-.22-.27,0-.41,.1-.41,.24,0,.15,.19,.19,.44,.23l.24,.04c.58,.09,.9,.35,.9,.8,0,.55-.45,.91-1.23,.91-.36,0-.84-.07-1.19-.32l.28-.55c.23,.15,.51,.26,.91,.26,.33,0,.49-.09,.49-.25,0-.13-.14-.2-.44-.25l-.22-.03c-.62-.09-.92-.36-.92-.81,0-.55,.43-.88,1.13-.88,.43,0,.76,.08,1.12,.25l-.24,.56Z"></path><path d="M32.63,31.47h-.97v.98c0,.33,.18,.46,.4,.46,.17,0,.36-.08,.5-.17l.26,.56c-.23,.16-.51,.28-.89,.28-.66,0-1-.38-1-1.07v-1.04h-.52v-.64h.52v-.8h.72v.8h.97v.64Z"></path><path d="M35.73,32.17c0,.08,0,.18-.01,.24h-1.9c.08,.39,.35,.56,.69,.56,.23,0,.48-.09,.68-.26l.42,.46c-.3,.28-.69,.41-1.14,.41-.82,0-1.39-.56-1.39-1.4s.55-1.42,1.35-1.42,1.3,.57,1.3,1.41Zm-1.91-.25h1.18c-.07-.34-.27-.54-.58-.54-.34,0-.54,.21-.6,.54Z"></path><path d="M38.15,30.82l-.11,.72c-.12-.05-.29-.09-.44-.09-.33,0-.56,.21-.56,.6v1.46h-.72v-2.68h.7v.29c.17-.25,.43-.36,.75-.36,.15,0,.28,.02,.38,.06Z"></path><path d="M40.88,31.26l-.52,.43c-.16-.17-.34-.27-.57-.27-.37,0-.67,.29-.67,.74s.3,.74,.67,.74c.23,0,.43-.1,.58-.27l.51,.44c-.25,.32-.63,.5-1.07,.5-.85,0-1.42-.6-1.42-1.41s.57-1.41,1.42-1.41c.45,0,.83,.18,1.07,.51Z"></path><path d="M43.99,33.51h-.7v-.3c-.17,.22-.43,.37-.8,.37-.74,0-1.29-.61-1.29-1.41s.56-1.41,1.29-1.41c.37,0,.62,.15,.8,.37v-.29h.7v2.68Zm-2.06-1.34c0,.41,.27,.74,.69,.74s.69-.31,.69-.74-.28-.74-.69-.74-.69,.33-.69,.74Z"></path><path d="M46.58,30.82l-.11,.72c-.12-.05-.29-.09-.44-.09-.33,0-.56,.21-.56,.6v1.46h-.72v-2.68h.7v.29c.17-.25,.43-.36,.75-.36,.15,0,.28,.02,.38,.06Z"></path><path d="M48.9,31.11v-1.58h.72v3.98h-.7v-.3c-.17,.22-.43,.37-.8,.37-.74,0-1.29-.61-1.29-1.41s.56-1.41,1.29-1.41c.36,0,.61,.14,.79,.35Zm-1.34,1.06c0,.41,.27,.74,.69,.74s.69-.31,.69-.74-.28-.74-.69-.74-.69,.33-.69,.74Z"></path><path d="M51.3,33.04c0,.29-.25,.54-.53,.54s-.54-.25-.54-.54,.25-.53,.54-.53,.53,.25,.53,.53Z"></path></g><g><path class="cls-9" d="M210.6,14.25c-.25-.59-.64-1.1-1.1-1.54-.33-.32-.71-.58-1.11-.81-.35-.2-.74-.32-1.13-.43-.47-.14-.95-.16-1.44-.15-1.75,0-3.49,0-5.24,0-.14,0-.18,.02-.18,.17,0,2.58,0,5.17,0,7.75s0,5.2,0,7.8c0,.13,.04,.15,.16,.15,.58,0,1.17,0,1.75,0,.14,0,.17-.03,.17-.17,0-2.04,0-4.08,0-6.12,0-.12,.03-.15,.15-.15,1.02,0,2.04,0,3.07,0,.63,0,1.26-.02,1.86-.24,.33-.12,.66-.23,.97-.41,.51-.29,.94-.66,1.34-1.09,.14-.15,.26-.31,.37-.47,.36-.54,.59-1.14,.68-1.78,.12-.86,.04-1.7-.3-2.5Zm-1.8,2.18c-.06,.44-.22,.83-.49,1.18-.25,.34-.56,.61-.92,.83-.41,.24-.84,.34-1.3,.34-1.17,.01-2.34,0-3.5,.01-.12,0-.11-.07-.11-.14v-2.63c0-.87,0-1.73,0-2.6,0-.12,.02-.16,.15-.16,1.19,0,2.38,0,3.57,.02,.37,0,.73,.08,1.05,.25,1.01,.56,1.75,1.57,1.56,2.9Z"></path><path class="cls-9" d="M220.7,23.61c0-.94,0-1.88,0-2.82,0-.48-.02-.96-.11-1.43-.17-.85-.56-1.57-1.19-2.16-.34-.33-.75-.58-1.18-.78-.46-.22-.97-.32-1.48-.39-.73-.11-1.47-.12-2.2,.04-.49,.11-.97,.21-1.42,.44-.54,.27-1.01,.61-1.42,1.04-.14,.14-.26,.31-.39,.46-.05,.06-.04,.1,.03,.14,.22,.13,.44,.26,.66,.4,.32,.2,.64,.4,.96,.59,.1,.07,.15,.05,.22-.05,.33-.46,.75-.84,1.27-1.04,.96-.37,1.93-.41,2.87,.11,.32,.18,.6,.41,.84,.69,.12,.14,.22,.31,.31,.48,.21,.43,.23,.89,.22,1.35,0,.09-.03,.09-.1,.06-.2-.08-.39-.2-.6-.27-.69-.24-1.41-.29-2.13-.36-.27-.02-.54,.01-.81,.04-.68,.07-1.35,.16-1.98,.45-.46,.22-.88,.48-1.25,.84-.35,.35-.62,.75-.76,1.23-.41,1.4-.13,2.64,.92,3.67,.36,.35,.78,.61,1.24,.81,.55,.24,1.15,.31,1.74,.37,.26,.03,.52-.02,.78-.05,.68-.08,1.29-.34,1.84-.73,.02-.01,.03-.02,.05-.03,.34-.3,.66-.61,.91-.98,.03-.04,.06-.08,.11-.07,.07,.02,.03,.08,.03,.12,0,.42,0,.84,0,1.26,0,.11,.03,.13,.14,.13,.56,0,1.13,0,1.7,0,.12,0,.16-.02,.16-.15,0-1.14,0-2.28,0-3.42Zm-2.39,.39c-.24,.39-.55,.71-.92,1-.23,.18-.48,.3-.73,.43-.41,.22-.85,.25-1.18,.27-.44,0-.76-.03-1.06-.15-.43-.17-.83-.41-1.1-.82-.33-.51-.36-1.05-.1-1.61,.17-.38,.48-.63,.82-.86,.48-.31,1.01-.41,1.56-.48,.19-.02,.39-.06,.58-.03,.6,.07,1.21,.1,1.78,.33,.24,.1,.46,.25,.68,.38,.05,.03,.07,.07,.07,.13-.02,.5-.14,.97-.41,1.41Z"></path><path class="cls-9" d="M221.04,16.31c.2,0,.38,0,.56,0,.52,0,1.05,0,1.57,0,.1,0,.14,.03,.18,.12,.13,.33,.27,.65,.4,.97,.44,1.04,.88,2.07,1.32,3.11,.28,.66,.56,1.32,.84,1.98,.21,.5,.42,1,.63,1.5,.02,.04,.02,.11,.08,.11,.05,0,.06-.07,.07-.11,.36-.88,.72-1.77,1.09-2.66,.19-.46,.38-.91,.56-1.37,.39-.94,.77-1.89,1.16-2.83,.1-.24,.2-.48,.29-.72,.03-.07,.07-.11,.16-.11,.67,0,1.35,0,2.02,0,.11,0,.12,.02,.07,.12-.14,.3-.26,.61-.4,.92-.44,.99-.88,1.98-1.32,2.97-.46,1.05-.93,2.1-1.39,3.15-.21,.48-.43,.95-.64,1.42-.39,.89-.78,1.78-1.18,2.68-.21,.48-.43,.97-.65,1.45-.39,.89-.78,1.77-1.17,2.66-.13,.29-.12,.29-.43,.29-.57,0-1.14,0-1.71,0-.1,0-.14,0-.08-.12,.35-.73,.7-1.47,1.05-2.21,.32-.68,.64-1.37,.96-2.05,.16-.34,.32-.69,.48-1.03,.02-.05,.02-.09,0-.14-.32-.7-.63-1.4-.95-2.1-.37-.82-.74-1.65-1.11-2.48-.3-.67-.6-1.34-.9-2.02-.37-.83-.74-1.65-1.11-2.48-.15-.33-.29-.67-.45-1.03Z"></path><path class="cls-6" d="M176.91,15.07c.12-.27,.27-.52,.43-.76,.25-.38,.52-.75,.82-1.09,.26-.29,.52-.56,.81-.82,.34-.31,.71-.58,1.09-.83,.5-.33,1.03-.59,1.57-.83,.39-.17,.8-.28,1.21-.4,1.49-.42,3-.39,4.5-.08,.43,.09,.87,.21,1.27,.39,.3,.13,.61,.24,.89,.41,.44,.25,.88,.52,1.28,.83,.19,.15,.4,.28,.55,.47,.05,.06,.03,.08-.01,.12-.35,.34-.7,.67-1.05,1.02-.42,.42-.84,.83-1.26,1.24-.09,.09-.16,.24-.27,.24-.1,0-.19-.13-.28-.22-.06-.06-.14-.1-.2-.15-.34-.25-.71-.44-1.1-.59-1.24-.49-2.49-.47-3.74-.08-.32,.1-.63,.23-.92,.41-.38,.23-.75,.49-1.08,.8-.49,.47-.9,1.02-1.19,1.64-.09,.2-.19,.4-.25,.61-.06,.02-.1-.02-.14-.05-.33-.27-.68-.52-1.02-.78-.41-.33-.84-.63-1.25-.96-.19-.16-.4-.28-.58-.44-.03-.03-.08-.05-.09-.1Z"></path><path class="cls-11" d="M179.98,20.89c.15,.43,.34,.83,.59,1.21,.31,.48,.68,.9,1.12,1.27,.39,.32,.81,.58,1.26,.8,.65,.31,1.34,.44,2.06,.47,.82,.03,1.62-.07,2.39-.36,.34-.13,.67-.27,.96-.5,.19,.11,.36,.25,.54,.38,.11,.08,.21,.17,.32,.25,.44,.32,.86,.66,1.3,.98,.25,.18,.5,.36,.73,.57,.03,.03,.08,.05,.08,.11-.17,.14-.32,.3-.5,.43-.29,.2-.58,.4-.88,.58-.25,.15-.51,.25-.76,.38-.39,.21-.82,.31-1.24,.44-1.27,.38-2.56,.42-3.87,.3-.38-.03-.76-.09-1.13-.19-.46-.13-.94-.25-1.37-.45-.27-.12-.55-.23-.81-.38-.43-.25-.86-.51-1.26-.82-.32-.25-.63-.53-.93-.81-.38-.37-.73-.79-1.03-1.23-.24-.34-.46-.69-.64-1.07,.13-.16,.29-.27,.45-.39,.47-.34,.93-.7,1.39-1.05,.39-.29,.78-.58,1.16-.89,.02-.02,.04-.02,.07-.01Z"></path><path class="cls-4" d="M191.33,26.07c-.23-.17-.45-.35-.68-.52-.37-.28-.74-.56-1.11-.84-.35-.26-.68-.54-1.04-.79-.05-.04-.1-.09-.14-.13,.28-.18,.53-.39,.75-.63,.54-.58,.9-1.25,1.07-2.03,.02-.07,0-.1-.07-.09-.03,0-.07,0-.1,0-1.55,0-3.1,0-4.65,0-.13,0-.18-.02-.17-.17,0-1.07,0-2.15,0-3.22,0-.12,.03-.15,.15-.15,2.81,0,5.62,0,8.44,0,.13,0,.17,.03,.19,.17,.11,.69,.15,1.38,.13,2.08-.04,.94-.18,1.86-.48,2.75-.25,.74-.58,1.44-1.02,2.09-.3,.44-.62,.84-1,1.21-.09,.09-.17,.19-.27,.26Z"></path><path class="cls-8" d="M179.98,20.89c-.35,.28-.7,.54-1.06,.81-.37,.28-.74,.56-1.12,.85-.3,.23-.6,.46-.9,.69-.25-.45-.43-.92-.59-1.41-.31-.98-.44-1.99-.4-3.02,.03-.75,.15-1.48,.36-2.21,.15-.5,.34-.97,.56-1.44,.02-.03,.04-.06,.06-.09,.29,.22,.57,.44,.86,.66,.29,.22,.59,.43,.88,.66,.37,.29,.74,.58,1.12,.85,.08,.05,.13,.14,.22,.17-.39,1.16-.39,2.33,0,3.49Z"></path></g><g><path d="M285.42,15.86c-.41,.26-.76,.55-1.05,.91-1.42,1.69-1.06,4.17,.79,5.42,.19,.13,.39,.24,.6,.34,.11,.05,.12,.1,.08,.2-.33,.94-.8,1.81-1.41,2.6-.32,.41-.64,.81-1.02,1.17-.69,.66-1.51,.77-2.4,.46-.25-.09-.49-.19-.74-.29-.9-.34-1.79-.3-2.67,.06-.19,.08-.39,.16-.58,.23-.94,.36-1.77,.17-2.47-.53-1.14-1.15-1.98-2.49-2.51-4.02-.4-1.15-.62-2.33-.54-3.55,.08-1.34,.51-2.54,1.51-3.47,.89-.83,1.95-1.23,3.17-1.16,.49,.03,.94,.2,1.4,.37,.22,.08,.44,.16,.66,.24,.38,.14,.75,.14,1.12,0,.48-.18,.96-.38,1.45-.51,1.66-.42,3.13-.06,4.34,1.19,.1,.1,.18,.21,.28,.34Z"></path><path d="M291.33,26.89h-1.12v-.21c0-4.97,0-9.94,0-14.91,0-.23,0-.24,.22-.27,1.19-.2,2.39-.3,3.6-.25,.98,.04,1.93,.21,2.81,.68,1.13,.61,1.78,1.58,1.98,2.83,.16,.97,.09,1.92-.32,2.83-.56,1.25-1.54,2.04-2.83,2.47-1.18,.39-2.39,.43-3.61,.32-.24-.02-.48-.06-.74-.1v6.63Zm0-11.09c0,1.1,0,2.19,0,3.29,0,.16,.04,.21,.19,.25,.78,.16,1.56,.18,2.35,.13,.57-.03,1.13-.13,1.66-.34,.97-.38,1.69-1.01,2.02-2.02,.25-.77,.29-1.55,.12-2.34-.18-.84-.63-1.49-1.36-1.93-.41-.25-.85-.42-1.31-.52-1.17-.25-2.35-.18-3.52,0-.12,.02-.15,.07-.15,.18,0,1.11,0,2.21,0,3.32Z"></path><path d="M306.61,20.06c0-.25,.01-.48,0-.71-.03-.48-.1-.96-.3-1.41-.39-.83-1.04-1.31-1.95-1.42-1.16-.14-2.24,.13-3.23,.72-.03,.02-.06,.04-.11,.06-.12-.27-.23-.53-.35-.8,.34-.24,.7-.43,1.08-.57,1.06-.39,2.16-.5,3.26-.27,1.3,.27,2.12,1.1,2.5,2.37,.18,.62,.24,1.27,.24,1.92,0,1.53,0,3.06,0,4.59,0,.78,0,1.55,.16,2.33h-1.04c-.06-.51-.11-1.03-.17-1.54-.01,0-.02,0-.04-.01-.03,.04-.06,.08-.1,.12-1.07,1.44-2.81,1.98-4.45,1.58-1.49-.36-2.36-1.62-2.27-3.2,.08-1.25,.7-2.16,1.76-2.79,.74-.44,1.56-.66,2.41-.8,.8-.13,1.61-.16,2.41-.17,.06,0,.12,0,.18,0Zm.02,.91c-.07,0-.11,0-.16,0-.47,.01-.95,.02-1.42,.05-.79,.05-1.56,.19-2.29,.5-.53,.23-1,.55-1.34,1.02-.38,.53-.44,1.13-.38,1.76,.08,.88,.51,1.51,1.49,1.82,.84,.26,1.68,.13,2.45-.29,1.06-.58,1.66-1.47,1.66-2.71,0-.65,0-1.31,0-1.96v-.19Z"></path><path d="M308.74,15.81c.39,0,.76,0,1.13,0,.04,0,.08,.07,.1,.12,.37,.93,.75,1.86,1.12,2.79,.65,1.63,1.31,3.26,1.95,4.9,.21,.54,.37,1.09,.55,1.64,.02,.05,.04,.1,.07,.18,.03-.07,.05-.1,.06-.14,.71-1.95,1.42-3.9,2.14-5.85,.43-1.17,.88-2.33,1.31-3.5,.05-.13,.11-.16,.24-.16,.3,.01,.61,0,.91,0,.02,0,.05,0,.08,.01-.02,.06-.04,.1-.05,.15-1.08,2.68-2.16,5.36-3.25,8.04-.5,1.23-1,2.45-1.54,3.66-.42,.94-.95,1.82-1.64,2.59-.67,.74-1.47,1.3-2.41,1.67-.03,.01-.06,.02-.1,.03-.12-.29-.25-.59-.37-.88,.24-.12,.46-.23,.69-.35,.73-.38,1.32-.93,1.85-1.56,.56-.68,1.01-1.43,1.33-2.26,.1-.25,.09-.48,0-.72-.47-1.16-.93-2.32-1.39-3.48-.9-2.25-1.79-4.49-2.69-6.74-.02-.04-.03-.08-.06-.16Z"></path><path d="M282.2,10.03c.03,.34,.03,.67-.05,.99-.34,1.39-1.15,2.37-2.53,2.83-.25,.08-.54,.09-.81,.13-.11,.02-.15-.03-.16-.15-.04-.67,.15-1.28,.48-1.85,.65-1.1,1.62-1.72,2.87-1.94,.06-.01,.13,0,.2-.01Z"></path></g></svg>